<mxfile host="app.diagrams.net" modified="2023-11-13T13:47:51.205Z" agent="Mozilla/5.0 (Macintosh; Intel Mac OS X 10_15_7) AppleWebKit/537.36 (KHTML, like Gecko) Chrome/119.0.0.0 Safari/537.36" version="22.1.0" etag="a5d_o6BuCHiA-UBCl61k" type="github">
  <diagram name="第 1 页" id="8eYaLx2iVgLUk6nrWzjS">
    <mxGraphModel>
      <root>
        <mxCell id="0" />
        <mxCell id="1" parent="0" />
      </root>
    </mxGraphModel>
  </diagram>
</mxfile>
